  <svg width="748" height="240" viewBox="0 0 748 240" fill="none" xmlns="http://www.w3.org/2000/svg">
  <g clip-path="url(#clip0_686_3446)">
  <path d="M61.7491 -0.388453C63.4029 -0.392527 65.0567 -0.397873 66.7105 -0.404383C71.1668 -0.417963 75.623 -0.412798 80.0794 -0.403246C84.7588 -0.395606 89.4382 -0.402707 94.1176 -0.407404C101.969 -0.412847 109.819 -0.405707 117.67 -0.391383C126.734 -0.375036 135.798 -0.380365 144.862 -0.396862C152.664 -0.410492 160.466 -0.41239 168.269 -0.404546C172.92 -0.399881 177.572 -0.399214 182.223 -0.409155C186.593 -0.417845 190.963 -0.411766 195.333 -0.394473C196.932 -0.39052 198.532 -0.391621 200.131 -0.398261C214.951 -0.454084 214.951 -0.454084 222 2.99973C223.008 3.42512 224.016 3.85051 225.055 4.28879C239.264 11.0196 248.138 21.3105 254.079 35.7714C256.613 42.8772 256.571 49.7925 256.534 57.2549C256.541 58.7608 256.549 60.2668 256.56 61.7728C256.582 65.833 256.579 69.8928 256.57 73.953C256.565 77.3572 256.573 80.7613 256.58 84.1654C256.597 92.2049 256.593 100.244 256.577 108.284C256.56 116.544 256.575 124.803 256.608 133.063C256.635 140.185 256.642 147.307 256.633 154.43C256.628 158.67 256.63 162.91 256.651 167.15C256.67 171.142 256.663 175.133 256.639 179.125C256.634 180.579 256.637 182.032 256.65 183.486C256.774 198.854 252.457 212.614 242.008 224.211C232.625 233.181 220.707 239.226 207.64 239.274C206.933 239.279 206.225 239.284 205.497 239.29C203.144 239.305 200.792 239.305 198.439 239.306C196.745 239.314 195.051 239.322 193.356 239.331C188.765 239.353 184.174 239.362 179.583 239.367C176.709 239.371 173.836 239.377 170.962 239.384C160.923 239.409 150.884 239.422 140.845 239.425C131.512 239.429 122.179 239.459 112.845 239.501C104.814 239.535 96.7821 239.551 88.7503 239.552C83.9616 239.552 79.1733 239.561 74.3847 239.59C69.875 239.616 65.366 239.618 60.8563 239.602C59.2105 239.6 57.5646 239.607 55.9189 239.623C38.6684 239.78 26.6757 234.683 13.9415 223.133C2.41607 211.171 -0.305831 196.346 -0.274578 180.421C-0.278931 178.951 -0.284117 177.482 -0.290066 176.012C-0.303405 172.039 -0.30404 168.066 -0.301502 164.092C-0.300429 160.765 -0.305327 157.438 -0.310108 154.111C-0.321187 146.254 -0.321651 138.398 -0.315594 130.541C-0.30956 122.461 -0.321852 114.382 -0.343163 106.302C-0.360835 99.3439 -0.366772 92.3857 -0.363526 85.4274C-0.361721 81.2811 -0.364266 77.1349 -0.378239 72.9886C-0.390903 69.0847 -0.388793 65.1811 -0.375828 61.2773C-0.373481 59.8536 -0.376131 58.4299 -0.384453 57.0062C-0.469541 41.3042 2.53548 28.5783 13.2423 16.7224C27.5385 2.71206 42.2537 -0.469824 61.7491 -0.388453Z" fill="black"/>
  <path d="M59.0005 44.0001C61.1228 45.5552 61.1228 45.5552 63.0005 48.0001C63.3749 50.6793 63.5084 52.9409 63.4546 55.6143C63.4552 56.3757 63.4558 57.1371 63.4564 57.9215C63.4536 60.4325 63.4225 62.9424 63.3911 65.4532C63.3837 67.1963 63.378 68.9393 63.374 70.6824C63.3587 75.266 63.3194 79.8492 63.2752 84.4326C63.2342 89.1113 63.216 93.79 63.1958 98.4688C63.153 107.646 63.0847 116.823 63.0005 126C67.3576 123.54 70.0396 120.789 73.0005 116.813C73.9574 115.56 74.9158 114.309 75.8755 113.059C76.3783 112.401 76.881 111.744 77.399 111.066C80.2019 107.45 83.1038 103.916 86.0005 100.375C87.0845 99.0501 88.1678 97.7246 89.2505 96.3985C89.7094 95.8383 90.1683 95.278 90.6411 94.7008C92.0807 92.9842 92.0807 92.9842 93.2757 90.8165C95.0005 89.0001 95.0005 89.0001 97.8797 88.5142C99.0243 88.5225 100.169 88.5307 101.348 88.5392C102.593 88.543 103.837 88.5469 105.12 88.5509C106.421 88.5754 107.722 88.5999 109.063 88.6251C111.021 88.627 111.021 88.627 113.018 88.629C122.72 88.7195 122.72 88.7195 125.001 91.0001C125.701 94.6508 125.035 95.9478 122.981 99.0938C122.063 100.24 121.131 101.375 120.188 102.5C119.692 103.111 119.195 103.722 118.684 104.351C117.137 106.246 115.572 108.125 114.001 110C113.531 110.564 113.061 111.127 112.577 111.708C108.399 116.711 104.195 121.686 99.8286 126.527C99.3137 127.109 98.7987 127.69 98.2681 128.289C97.2793 129.404 96.2785 130.508 95.2642 131.6C93.7298 133.276 93.7298 133.276 92.0005 136C92.32 139.735 93.3961 141.953 95.7388 144.828C96.3061 145.537 96.8733 146.247 97.4578 146.977C98.3761 148.102 98.3761 148.102 99.313 149.25C105.763 157.332 111.821 165.617 117.688 174.13C118.59 175.415 119.512 176.685 120.451 177.943C124.007 182.716 124.007 182.716 123.938 185.813C123.001 188 123.001 188 121.001 190C116.916 190.486 112.798 190.37 108.688 190.375C107.547 190.4 106.405 190.424 105.229 190.449C96.9494 190.478 96.9494 190.478 93.0943 188.535C90.0688 184.872 87.4186 181.033 84.813 177.063C83.6658 175.356 82.516 173.652 81.3638 171.949C80.7974 171.112 80.231 170.274 79.6475 169.412C77.3289 166.017 74.9568 162.672 72.5005 159.375C71.7477 158.352 70.9949 157.328 70.2193 156.274C67.6979 153.69 66.4642 153.525 63.0005 153C63.0215 154.014 63.0424 155.029 63.064 156.074C63.1364 159.836 63.1823 163.599 63.2202 167.362C63.2404 168.99 63.2677 170.619 63.3023 172.247C63.3508 174.588 63.3735 176.928 63.3911 179.27C63.4118 179.998 63.4324 180.726 63.4537 181.476C63.4551 184.65 63.4259 186.509 61.3062 188.956C56.8969 190.953 52.2609 190.47 47.5005 190.438C46.4551 190.458 45.4097 190.478 44.3326 190.498C42.8224 190.497 42.8224 190.497 41.2818 190.496C40.3646 190.498 39.4474 190.5 38.5025 190.502C35.1748 189.835 34.1219 188.618 32.0005 186C31.4944 183.429 31.4944 183.429 31.4859 180.466C31.4731 179.34 31.4604 178.214 31.4473 177.054C31.4538 175.823 31.4603 174.593 31.4671 173.325C31.4585 172.025 31.4498 170.725 31.441 169.387C31.4185 165.824 31.4214 162.263 31.4303 158.701C31.4354 155.726 31.4281 152.751 31.4208 149.777C31.4038 142.758 31.4074 135.74 31.4241 128.722C31.441 121.484 31.4252 114.246 31.3929 107.008C31.3662 100.792 31.3589 94.575 31.3674 88.3583C31.3723 84.6463 31.3701 80.9347 31.3496 77.2227C31.3278 73.0831 31.3467 68.9446 31.3694 64.805C31.3577 63.5763 31.346 62.3475 31.334 61.0816C31.4376 51.8414 31.4376 51.8414 34.3832 48.7713C41.0966 44.2281 51.0228 42.358 59.0005 44.0001Z" fill="white"/>
  <path d="M206.999 94.0002C208.882 95.9103 208.882 95.9103 209.999 98.0002C209.753 101.529 207.798 104.502 206.124 107.563C205.355 108.988 205.355 108.988 204.569 110.442C203.187 112.694 202.052 114.355 199.999 116C194.921 116.693 191.582 115.055 186.999 113C179.862 110.621 172.481 110.169 164.999 111C162.144 112.396 162.144 112.396 159.999 114C159.788 116.391 159.788 116.391 160.999 119C166.009 122.771 172.628 123.634 178.624 124.875C192.23 127.7 207.798 132.061 216.026 144.094C219.619 151.135 219.945 158.254 218.999 166C215.07 177.256 207.615 182.423 197.452 187.703C188.728 190.98 179.795 191.341 170.562 191.313C169.519 191.329 168.477 191.345 167.403 191.362C157.609 191.368 148.59 189.382 139.562 185.563C138.614 185.172 137.667 184.782 136.691 184.379C133.149 182.565 129.817 180.635 127.999 177C127.508 172.439 128.303 169.059 130.827 165.219C134.047 161.407 136.785 158.54 141.374 156.5C146.006 157.139 149.115 159.086 153.116 161.43C162.418 166.497 174.066 167.877 184.312 165C185.199 164.67 186.085 164.34 186.999 164C187.102 162.742 187.205 161.484 187.312 160.188C187.37 159.48 187.428 158.772 187.487 158.043C187.172 155.779 187.172 155.779 184.874 154.36C181.835 152.923 178.929 151.95 175.687 151.063C173.84 150.55 173.84 150.55 171.956 150.028C169.297 149.322 166.631 148.676 163.948 148.067C151.689 145.263 140.328 141.929 132.999 131C128.734 123.708 129.076 115.831 131.062 107.813C133.577 100.408 138.912 94.9081 145.667 91.0978C163.751 82.5858 189.592 83.6557 206.999 94.0002Z" fill="white"/>
  <path d="M593.04 125.637C594.158 125.638 594.158 125.638 595.298 125.639C596.451 125.663 596.451 125.663 597.626 125.688C598.402 125.685 599.178 125.681 599.978 125.678C605.734 125.733 605.734 125.733 608.001 128C608.2 131.033 608.274 133.974 608.26 137.008C608.264 137.942 608.267 138.875 608.271 139.837C608.28 142.933 608.274 146.029 608.267 149.125C608.268 151.27 608.27 153.415 608.273 155.559C608.276 160.059 608.271 164.558 608.262 169.057C608.251 174.834 608.257 180.612 608.269 186.389C608.276 190.819 608.274 195.249 608.269 199.679C608.268 201.81 608.269 203.94 608.274 206.071C608.279 209.045 608.271 212.019 608.26 214.992C608.264 215.88 608.268 216.767 608.272 217.681C608.23 223.772 608.23 223.772 606.001 226C603.146 226.226 600.419 226.325 597.564 226.313C596.399 226.337 596.399 226.337 595.21 226.362C589.463 226.367 589.463 226.367 587.318 224.665C586.001 223 586.001 223 585.001 220C584.131 220.507 584.131 220.507 583.244 221.024C582.462 221.47 581.681 221.916 580.876 222.375C580.111 222.816 579.345 223.257 578.556 223.711C572.841 226.595 567.923 227.36 561.626 227.313C560.871 227.309 560.116 227.304 559.338 227.3C548.734 227.084 541.056 222.629 533.677 215.071C525.914 205.479 525.179 194.819 526.001 183C527.753 173.406 533.708 166.197 541.001 160C549.674 154.517 558.978 154.041 569.001 155C574.786 156.361 579.306 158.399 584.001 162C584.011 161.016 584.02 160.032 584.03 159.019C584.07 155.367 584.135 151.717 584.209 148.066C584.237 146.486 584.258 144.906 584.272 143.326C584.294 141.054 584.34 138.783 584.392 136.512C584.394 135.452 584.394 135.452 584.396 134.372C584.49 131.2 584.602 129.436 586.787 127.053C589.092 125.957 590.506 125.626 593.04 125.637Z" fill="black"/>
  <path d="M582.189 44.2502C582.787 44.8277 583.385 45.4052 584.002 46.0002C584.474 45.0205 584.945 44.0408 585.431 43.0314C588.002 40.0002 588.002 40.0002 589.987 39.4728C592.391 39.3365 594.722 39.3786 597.127 39.5002C598.362 39.5156 598.362 39.5156 599.623 39.5314C605.692 39.6903 605.692 39.6903 608.002 42.0002C608.262 44.6949 608.262 44.6949 608.276 48.1623C608.286 49.457 608.295 50.7518 608.305 52.0857C608.305 53.5051 608.304 54.9245 608.302 56.3439C608.306 57.7936 608.311 59.2432 608.315 60.6929C608.323 63.7327 608.323 66.7724 608.317 69.8122C608.312 73.7132 608.329 77.6137 608.352 81.5147C608.366 84.5086 608.367 87.5025 608.364 90.4964C608.365 91.935 608.37 93.3736 608.38 94.8121C608.392 96.8207 608.384 98.8294 608.374 100.838C608.375 101.982 608.375 103.127 608.376 104.305C608.252 105.195 608.129 106.084 608.002 107C604.901 109.067 604.272 109.245 600.771 109.195C599.969 109.189 599.166 109.183 598.34 109.176C597.09 109.151 597.09 109.151 595.814 109.125C594.547 109.112 594.547 109.112 593.254 109.098C591.17 109.074 589.086 109.038 587.002 109C586.012 107.02 585.022 105.04 584.002 103C583.24 103.507 583.24 103.507 582.463 104.024C581.774 104.47 581.086 104.916 580.377 105.375C579.704 105.816 579.031 106.257 578.338 106.711C569.069 111.826 555.859 111.682 545.72 109.195C537.629 105.483 530.212 98.2183 526.713 90.0002C526.478 89.3402 526.243 88.6802 526.002 88.0002C525.65 87.0411 525.65 87.0411 525.291 86.0627C522.688 77.1389 523.26 65.6717 527.314 57.3127C528.172 55.8523 529.063 54.4103 530.002 53.0002C530.6 52.0927 531.198 51.1852 531.814 50.2502C545.111 36.5732 566.057 32.8629 582.189 44.2502Z" fill="black"/>
  <path d="M726.521 163.82C734.309 170.663 739.089 177.343 740.197 187.851C740.716 197.363 737.981 206.28 731.752 213.5C727.835 217.442 723.997 220.567 719.002 223C718.285 223.39 717.568 223.781 716.83 224.183C706.622 228.881 692.983 228.682 682.193 226.082C671.833 222.004 663.083 214.955 657.627 205.187C654.339 197.05 654.568 186.754 657.072 178.449C661.395 169.152 667.879 162.217 677.244 157.964C693.567 152.254 712.745 152.966 726.521 163.82Z" fill="black"/>
  <path d="M320.172 5.6723C321.292 5.68003 321.292 5.68003 322.434 5.68792C323.581 5.71886 323.581 5.71886 324.75 5.75042C325.92 5.75816 325.92 5.75816 327.114 5.76605C332.846 5.8458 332.846 5.8458 334 7.00042C334.094 8.74971 334.118 10.5028 334.114 12.2546C334.114 13.3757 334.114 14.4967 334.114 15.6518C334.109 16.8716 334.103 18.0913 334.098 19.3481C334.097 20.5896 334.095 21.8312 334.094 23.1104C334.089 26.4165 334.08 29.7225 334.069 33.0286C334.059 36.4 334.054 39.7715 334.049 43.143C334.038 49.7622 334.021 56.3813 334 63.0004C334.66 63.0004 335.32 63.0004 336 63.0004C336.242 62.4335 336.484 61.8665 336.733 61.2824C338.25 58.5507 340.066 56.6924 342.282 54.4887C343.123 53.6489 343.965 52.8091 344.832 51.9438C345.713 51.0756 346.593 50.2074 347.5 49.3129C348.381 48.4331 349.261 47.5534 350.168 46.6469C357.81 39.0582 357.81 39.0582 361.339 38.8869C362.768 38.8948 362.768 38.8948 364.227 38.9028C365.258 38.906 366.289 38.9092 367.352 38.9125C368.432 38.9209 369.512 38.9293 370.625 38.9379C372.257 38.9447 372.257 38.9447 373.922 38.9516C376.615 38.9634 379.308 38.9799 382 39.0004C382 43.0004 382 43.0004 379.43 46.0248C378.255 47.1989 377.07 48.362 375.875 49.516C375.254 50.1319 374.632 50.7477 373.992 51.3822C372.004 53.3478 370.003 55.2991 368 57.2504C366.651 58.5802 365.302 59.9109 363.954 61.2426C360.646 64.5059 357.327 67.7563 354 71.0004C357.097 75.2449 360.111 79.3759 363.938 83.0004C367.153 86.1303 370.134 89.3698 373.059 92.77C376.959 97.251 380.994 101.615 385 106C384.505 107.485 384.505 107.485 384 109C380.001 109.235 376.004 109.375 372 109.5C370.875 109.567 369.75 109.634 368.59 109.704C360.323 109.897 360.323 109.897 356.526 107.322C354.502 105.31 352.744 103.258 351 101C349.84 99.6825 348.674 98.3692 347.5 97.0629C346.942 96.4119 346.384 95.761 345.809 95.0903C343.104 91.9645 340.3 88.9282 337.504 85.8832C336 84.0004 336 84.0004 336 82.0004C335.34 82.0004 334.68 82.0004 334 82.0004C334.016 82.7473 334.032 83.4941 334.048 84.2636C334.11 87.6341 334.149 91.0045 334.188 94.3754C334.213 95.551 334.238 96.7267 334.264 97.9379C334.274 99.0594 334.283 100.181 334.293 101.336C334.309 102.373 334.325 103.41 334.341 104.478C334.229 105.311 334.116 106.143 334 107C330.868 109.089 330.15 109.25 326.586 109.231C325.743 109.229 324.9 109.227 324.032 109.225C323.155 109.213 322.279 109.201 321.375 109.188C320.491 109.187 319.607 109.187 318.696 109.186C312.141 109.141 312.141 109.141 311 108C310.878 104.942 310.822 101.906 310.808 98.8466C310.799 97.8857 310.791 96.9247 310.783 95.9347C310.758 92.7405 310.741 89.5463 310.727 86.352C310.722 85.2644 310.716 84.1769 310.711 83.0563C310.684 77.3017 310.665 71.5471 310.65 65.7924C310.634 59.8344 310.589 53.8768 310.538 47.919C310.504 43.35 310.493 38.7812 310.487 34.2121C310.48 32.0152 310.465 29.8183 310.441 27.6214C310.41 24.5515 310.409 21.4831 310.417 18.413C310.392 17.043 310.392 17.043 310.367 15.6452C310.39 13.3212 310.446 11.2572 311 9.00042C313.965 6.45353 316.299 5.61903 320.172 5.6723Z" fill="black"/>
  <path d="M506.936 43.8129C512.032 47.5425 516.278 51.7422 517.999 58.0004C518.436 61.0629 518.436 61.0629 517.999 64.0004C514.647 67.1218 511.201 69.014 507.026 70.8402C505.304 71.5991 505.304 71.5991 503.548 72.3734C502.356 72.8897 501.164 73.406 499.936 73.9379C498.772 74.4503 497.607 74.9627 496.407 75.4906C492.944 77.009 489.473 78.5083 485.999 80.0004C484.33 80.7218 484.33 80.7218 482.628 81.4579C481.576 81.9063 480.524 82.3548 479.44 82.8168C478.51 83.2145 477.58 83.6123 476.622 84.0221C474.083 84.9692 471.668 85.5512 468.999 86.0004C470.473 89.8874 472.28 91.2211 475.999 93.0004C478.708 93.3173 481.111 93.4773 483.811 93.4379C484.88 93.4276 484.88 93.4276 485.971 93.4171C493.445 93.1887 497.721 91.1541 503.061 86.1879C505.999 84.0004 505.999 84.0004 509.561 83.8754C513.663 85.2178 515.45 86.5241 517.999 90.0004C518.749 92.8129 518.749 92.8129 517.999 96.0004C513.325 103.563 506.462 107.659 497.96 109.746C483.37 112.32 469.108 112.2 456.124 104.313C448.969 99.078 443.404 91.8753 441.999 83.0004C441.285 71.7766 440.833 60.9045 448.311 51.8441C462.648 36.1804 488.654 32.3941 506.936 43.8129Z" fill="black"/>
  <path d="M738.563 44.8125C743.71 49.2515 747.202 53.1427 747.813 60.125C747.957 62.5703 747.957 62.5703 747 65C740.174 70.244 731.944 73.228 724.063 76.5625C722.73 77.1315 721.397 77.7012 720.065 78.2715C718.132 79.0987 716.198 79.9253 714.264 80.7492C709.487 82.7841 704.737 84.8734 700 87C701.345 89.9987 701.345 89.9987 703.68 92.2227C710.849 94.6245 719.94 94.0185 726.688 90.75C729.378 89.2015 731.069 87.9256 733.188 85.625C735 84 735 84 738.438 84C742.319 85.0896 744.277 86.0368 747 89C748.394 92.7701 748.304 94.3387 746.625 98C739.857 105.735 731.264 109.282 721.117 110.285C718.218 110.4 715.339 110.41 712.438 110.375C711.474 110.387 710.511 110.398 709.518 110.41C697.203 110.36 689.04 106.804 680.246 98.3047C673.764 91.3187 671.252 83.6101 671.375 74.1875C671.383 73.3146 671.391 72.4416 671.399 71.5422C671.719 62.1597 674.94 55.1619 681.125 48.125C695.712 34.8412 722.344 33.5466 738.563 44.8125Z" fill="black"/>
  <path d="M454.563 155.687C455.343 155.684 456.124 155.681 456.928 155.677C462.733 155.733 462.733 155.733 465 158C465.21 160.928 465.301 163.769 465.309 166.699C465.334 168.483 465.359 170.268 465.385 172.052C465.414 174.866 465.438 177.679 465.457 180.492C465.478 183.207 465.518 185.921 465.559 188.636C465.559 189.469 465.559 190.302 465.559 191.159C465.667 197.597 466.772 202.444 471.125 207.437C475.694 209.92 480.051 209.788 485.032 208.457C488.735 207.036 491.055 205.458 493 202C493.897 199.309 494.137 197.694 494.174 194.927C494.187 194.113 494.201 193.299 494.215 192.46C494.225 191.585 494.236 190.71 494.246 189.808C494.279 187.959 494.313 186.109 494.346 184.259C494.394 181.341 494.438 178.422 494.477 175.503C494.517 172.688 494.568 169.873 494.621 167.058C494.63 166.181 494.638 165.304 494.647 164.4C494.774 158.226 494.774 158.226 497 156C498.848 155.741 498.848 155.741 501.063 155.734C502.258 155.73 502.258 155.73 503.477 155.726C504.31 155.734 505.142 155.742 506 155.75C506.833 155.742 507.666 155.734 508.524 155.726C509.32 155.729 510.117 155.731 510.938 155.734C511.669 155.736 512.4 155.739 513.153 155.741C515 156 515 156 517 158C517.261 159.805 517.261 159.805 517.275 162.015C517.284 162.844 517.294 163.672 517.304 164.526C517.303 165.425 517.302 166.324 517.301 167.25C517.305 168.178 517.31 169.105 517.314 170.061C517.32 172.032 517.32 174.002 517.316 175.973C517.313 178.96 517.336 181.946 517.362 184.933C517.364 186.851 517.365 188.769 517.364 190.687C517.373 191.57 517.382 192.453 517.391 193.362C517.319 203.253 514.93 211.733 508 219C498.65 226.207 490.181 227.202 478.75 227.312C477.764 227.341 476.778 227.37 475.762 227.4C465.24 227.49 457.541 224.388 449.914 217.152C443.33 209.748 442.842 201.711 442.797 192.211C442.791 191.27 442.786 190.33 442.78 189.361C442.77 187.38 442.764 185.398 442.76 183.416C442.75 180.378 442.719 177.342 442.688 174.304C442.681 172.377 442.676 170.45 442.672 168.523C442.66 167.614 442.647 166.704 442.635 165.767C442.638 164.923 442.641 164.078 442.644 163.208C442.64 162.466 442.637 161.724 442.633 160.959C443.797 154.75 449.438 155.581 454.563 155.687Z" fill="black"/>
  <path d="M341.938 154.563C342.989 154.576 344.04 154.589 345.123 154.603C354.972 154.832 364.072 155.614 372 162C371.66 167.442 368.297 170.937 365 175C364.443 174.807 363.886 174.613 363.312 174.414C354.236 171.317 345.712 168.71 336 170C333.678 171.406 333.678 171.406 332 173C332.106 175.452 332.106 175.452 333 178C337.279 180.298 341.949 180.697 346.688 181.375C357.724 183.116 366.113 185.669 374 194C377.26 198.89 376.431 204.282 376 210C374.134 216.298 368.742 220.7 363.246 224.078C350.173 229.444 331.825 229.2 318.648 224.289C314.468 222.255 310.672 219.847 307 217C307.291 211.03 310.028 208.106 314 204C317.877 204.619 321.027 205.809 324.562 207.5C330.636 210.398 335.327 211.202 342.062 211.25C342.782 211.271 343.502 211.291 344.244 211.313C348.352 211.363 348.352 211.363 351.977 209.645C353.426 207.316 353.344 205.686 353 203C350.561 200.561 349.228 200.473 345.871 199.852C344.835 199.651 343.8 199.45 342.732 199.242C340.564 198.836 338.394 198.432 336.225 198.031C325.753 195.99 317.214 193.083 310.125 184.813C307.913 179.283 308.464 173.893 310.062 168.25C316.935 156.722 329.324 154.284 341.938 154.563Z" fill="black"/>
  <path d="M644 13.0002C646 15.0002 646 15.0002 646.227 17.5222C646.217 18.5591 646.206 19.596 646.195 20.6643C646.189 21.7858 646.182 22.9073 646.176 24.0627C646.159 25.2384 646.142 26.414 646.125 27.6252C646.116 28.8086 646.107 29.992 646.098 31.2112C646.074 34.141 646.038 37.0706 646 40.0002C652.27 40.0002 658.54 40.0002 665 40.0002C666.29 42.5803 666.204 44.5577 666.25 47.4378C666.276 48.4058 666.302 49.3739 666.328 50.3713C665.942 53.4663 665.409 54.1153 663 56.0003C661.099 56.3408 661.099 56.3408 658.988 56.2932C658.231 56.2836 657.474 56.2739 656.693 56.2639C655.908 56.2388 655.122 56.2137 654.312 56.1878C653.117 56.1674 653.117 56.1674 651.896 56.1467C649.931 56.1114 647.965 56.0576 646 56.0003C646.069 60.3241 646.157 64.6471 646.262 68.9702C646.296 70.4395 646.324 71.9089 646.346 73.3784C646.38 75.4964 646.432 77.6132 646.488 79.7307C646.514 81.0033 646.541 82.2758 646.568 83.5869C647.061 87.4833 648.201 90.2009 651 93.0003C653.353 93.073 655.708 93.084 658.062 93.0628C659.353 93.0537 660.643 93.0447 661.973 93.0354C662.972 93.0238 663.971 93.0122 665 93.0003C666.495 96.3532 667.275 99.0137 667.25 102.688C667.258 103.838 667.258 103.838 667.266 105.012C667 107 667 107 665 109C660.254 110.594 655.2 110.264 650.25 110.313C649.286 110.342 648.322 110.371 647.328 110.401C639.908 110.466 634.766 109.053 628.977 104.36C628.308 103.563 628.308 103.563 627.625 102.75C626.933 101.969 626.933 101.969 626.227 101.172C622.966 95.3989 622.713 89.0237 622.805 82.5628C622.809 81.4144 622.809 81.4144 622.813 80.2429C622.824 77.8285 622.849 75.4145 622.875 73.0003C622.885 71.3505 622.894 69.7008 622.902 68.051C622.924 64.034 622.959 60.0172 623 56.0003C622.196 56.0209 621.391 56.0415 620.562 56.0628C618 56.0003 618 56.0003 617 55.0003C616.901 52.6687 616.87 50.334 616.875 48.0003C616.872 46.7215 616.87 45.4427 616.867 44.1252C617 41.0002 617 41.0002 618 40.0002C619.666 39.9596 621.334 39.9575 623 40.0002C622.984 39.3495 622.969 38.6988 622.952 38.0283C622.89 35.0816 622.851 32.1349 622.812 29.1877C622.787 28.1636 622.762 27.1394 622.736 26.0842C622.727 25.1013 622.717 24.1184 622.707 23.1057C622.683 21.7468 622.683 21.7468 622.659 20.3604C623.067 17.5339 623.743 16.6933 626 15.0002C631.761 13.2848 638.006 12.4901 644 13.0002Z" fill="black"/>
  <path d="M411 130C412 131 412 131 412.114 133.5C412.108 134.584 412.103 135.668 412.098 136.785C412.094 137.955 412.091 139.125 412.088 140.33C412.08 141.562 412.071 142.793 412.062 144.062C412.058 145.298 412.053 146.533 412.049 147.806C412.037 150.871 412.019 153.935 412 157C418.6 157 425.2 157 432 157C432.195 166.961 432.195 166.961 432 170C430 172 430 172 428.121 172.227C427.377 172.216 426.633 172.206 425.867 172.195C425.062 172.189 424.256 172.182 423.426 172.176C422.163 172.151 422.163 172.151 420.875 172.125C419.601 172.111 419.601 172.111 418.301 172.098C416.2 172.074 414.1 172.038 412 172C412.069 176.466 412.157 180.932 412.262 185.397C412.296 186.915 412.324 188.433 412.346 189.951C412.38 192.138 412.432 194.325 412.488 196.512C412.514 197.826 412.541 199.14 412.568 200.495C413.021 204.167 413.662 206.147 416 209C418.71 209.299 420.83 209.344 423.5 209.125C430.399 208.639 430.399 208.639 432.91 210.148C434.363 212.616 434.658 214.654 434.938 217.5C435.05 218.459 435.162 219.418 435.277 220.406C435 223 435 223 433.316 224.781C428.086 227.533 422.465 227.214 416.688 227.25C415.463 227.281 415.463 227.281 414.213 227.312C407.622 227.354 401.968 226.425 396.758 222.168C396.219 221.514 395.68 220.861 395.125 220.187C394.571 219.542 394.016 218.896 393.445 218.23C389.887 212.739 389.723 207.417 389.805 201.101C389.809 199.849 389.809 199.849 389.813 198.571C389.824 195.922 389.849 193.274 389.875 190.625C389.885 188.821 389.894 187.018 389.902 185.215C389.924 180.81 389.959 176.405 390 172C388.298 172.031 388.298 172.031 386.562 172.062C383 172 383 172 382 171C381.875 168.857 381.824 166.709 381.812 164.562C381.798 163.388 381.784 162.214 381.77 161.004C382 158 382 158 384 156C387.125 155.875 387.125 155.875 390 156C389.976 154.97 389.976 154.97 389.952 153.92C389.89 150.822 389.851 147.724 389.812 144.625C389.787 143.545 389.762 142.464 389.736 141.351C389.722 139.805 389.722 139.805 389.707 138.226C389.691 137.273 389.676 136.32 389.659 135.338C389.772 134.567 389.884 133.795 390 133C393.328 130.781 394.895 130.641 398.812 130.375C399.83 130.3 400.847 130.225 401.895 130.148C404.941 130.003 407.951 129.902 411 130Z" fill="black"/>
  <path d="M438 38.9998C440.763 41.7629 440.332 43.5221 440.375 47.3748C440.404 48.5169 440.432 49.659 440.461 50.8357C440 53.9998 440 53.9998 438.313 56.3826C435.538 58.3233 433.982 58.4622 430.625 58.4998C425.68 58.7969 422.715 59.4757 419 62.9998C416.835 67.9643 416.692 72.5134 416.657 77.8279C416.642 78.6581 416.627 79.4883 416.612 80.3437C416.55 83.8767 416.51 87.4099 416.469 90.9431C416.435 93.5299 416.39 96.1163 416.344 98.7029C416.339 99.505 416.334 100.307 416.328 101.133C416.226 106.774 416.226 106.774 414 109C411.953 109.243 411.953 109.243 409.465 109.23C408.574 109.228 407.682 109.226 406.764 109.224C405.831 109.212 404.899 109.2 403.938 109.187C402.533 109.186 402.533 109.186 401.1 109.185C394.14 109.14 394.14 109.14 393 108C392.89 105.991 392.851 103.979 392.839 101.967C392.83 100.675 392.82 99.3839 392.81 98.0532C392.805 96.6317 392.801 95.2103 392.797 93.7888C392.791 92.3401 392.786 90.8914 392.78 89.4427C392.769 86.4012 392.764 83.3597 392.76 80.3181C392.755 76.4183 392.731 72.5189 392.702 68.6192C392.683 65.6252 392.678 62.6313 392.677 59.6373C392.674 58.1996 392.666 56.7618 392.653 55.3241C392.636 53.3133 392.639 51.3022 392.644 49.2913C392.64 48.1462 392.637 47.0012 392.633 45.8215C393 42.9998 393 42.9998 394.274 41.1271C397.37 39.105 401.053 39.6555 404.625 39.7498C405.414 39.7549 406.203 39.7601 407.016 39.7654C412.846 39.8455 412.846 39.8455 414 40.9998C414.041 42.9994 414.043 45.0002 414 46.9998C414.66 46.9998 415.32 46.9998 416 46.9998C416.33 46.0098 416.66 45.0198 417 43.9998C423.352 39.3604 430.243 37.7203 438 38.9998Z" fill="black"/>
  <path d="M634.502 155.687C635.274 155.671 636.046 155.655 636.841 155.638C642.448 155.633 642.448 155.633 644.721 157.137C646.576 159.835 646.383 161.911 646.39 165.168C646.399 166.439 646.409 167.71 646.418 169.02C646.413 170.409 646.407 171.798 646.4 173.187C646.402 174.61 646.405 176.034 646.409 177.457C646.413 180.44 646.407 183.422 646.393 186.405C646.376 190.228 646.385 194.051 646.403 197.875C646.414 200.814 646.411 203.753 646.403 206.692C646.401 208.102 646.403 209.512 646.41 210.921C646.418 212.892 646.404 214.862 646.39 216.832C646.387 217.953 646.385 219.074 646.383 220.229C646.002 223 646.002 223 644.6 224.862C642.559 226.314 641.333 226.373 638.841 226.363C638.048 226.362 637.255 226.362 636.437 226.361C635.613 226.345 634.788 226.329 633.939 226.312C633.111 226.315 632.283 226.318 631.429 226.322C625.269 226.267 625.269 226.267 623.002 224C622.741 221.267 622.741 221.267 622.727 217.746C622.717 216.431 622.708 215.116 622.698 213.761C622.698 212.32 622.699 210.879 622.701 209.437C622.697 207.965 622.693 206.493 622.688 205.021C622.68 201.934 622.681 198.847 622.686 195.76C622.692 191.799 622.675 187.838 622.652 183.876C622.637 180.836 622.636 177.796 622.639 174.755C622.639 173.295 622.633 171.834 622.623 170.373C622.611 168.333 622.62 166.293 622.629 164.253C622.629 163.091 622.628 161.929 622.627 160.732C622.751 159.83 622.874 158.929 623.002 158C626.845 155.437 630.049 155.668 634.502 155.687Z" fill="black"/>
  <path d="M195.638 44.696C196.406 44.697 197.173 44.6979 197.964 44.6988C198.753 44.6945 199.542 44.6902 200.356 44.6858C202.026 44.6801 203.696 44.6796 205.366 44.6839C207.924 44.6871 210.48 44.6636 213.037 44.6383C214.658 44.636 216.28 44.6353 217.902 44.6363C218.667 44.6271 219.433 44.6179 220.222 44.6084C223.089 44.6334 225.421 44.6891 227.978 46.0616C229.559 49.0623 229.447 52.0588 229.433 55.3707C229.438 56.0894 229.444 56.8082 229.449 57.5487C229.455 59.0675 229.454 60.5864 229.445 62.1053C229.437 64.4258 229.466 66.7438 229.497 69.064C229.499 70.5413 229.499 72.0185 229.496 73.4957C229.512 74.5333 229.512 74.5333 229.53 75.592C229.481 78.9735 229.21 80.7247 227.129 83.4412C224.999 84.9996 224.999 84.9996 222.437 85.4371C219.487 84.9076 218.756 84.4026 216.999 81.9996C216.706 79.0816 216.706 79.0816 216.812 75.8121C216.839 74.7254 216.866 73.6387 216.894 72.5191C216.929 71.6877 216.964 70.8562 216.999 69.9996C212.135 71.9686 209.594 74.3928 206.367 78.3472C203.729 81.5348 202.088 82.8663 197.937 83.3746C194.999 82.9996 194.999 82.9996 193.124 81.8746C191.34 78.9004 191.351 77.4364 191.999 73.9996C194.076 71.0848 196.519 68.5723 198.999 65.9996C202.66 61.9174 202.66 61.9174 204.999 56.9996C203.427 57.0692 203.427 57.0692 201.824 57.1402C200.445 57.1777 199.066 57.2141 197.687 57.2496C196.997 57.2831 196.306 57.3166 195.595 57.3512C190.492 57.4498 190.492 57.4498 188.007 55.1793C186.59 52.1133 187.096 50.1972 187.999 46.9996C190.536 44.4626 192.176 44.7425 195.638 44.696Z" fill="white"/>
  <path d="M706.438 173.125C711.598 175.421 714.241 179.17 716.375 184.312C717.389 190.293 716.996 196.606 714 202C710.356 206.251 706.604 209.578 700.863 210.25C694.824 210.414 689.602 209.513 684.312 206.437C680.213 202.116 677.819 196.871 677.562 190.875C678.283 184.493 680.597 179.662 685 175C691.324 170.494 699.176 170.806 706.438 173.125Z" fill="white"/>
  <path d="M578.999 59.9998C583.846 65.1356 585.311 68.3499 585.21 75.3318C584.776 80.8247 583.313 85.172 579.124 88.8748C572.615 93.3011 566.744 93.851 558.999 92.9998C553.328 90.2657 549.419 85.8069 546.999 79.9998C546.074 73.1858 546.293 67.2718 550.441 61.6209C558.286 53.4609 570.405 52.7729 578.999 59.9998Z" fill="white"/>
  <path d="M574.312 173.188C579.186 175.265 582.097 178.646 585 183C586.456 189.777 586.582 195.929 583 202C579.246 206.566 575.41 209.525 569.453 210.356C563.628 210.654 559.409 210.026 554.656 206.54C549.8 202.027 548.315 197.025 547.898 190.493C548.148 184.36 550.751 179.375 555 175C560.424 170.374 567.86 171.049 574.312 173.188Z" fill="white"/>
  <path d="M639 125C642.911 126.989 644.577 128.365 647 132C647.545 135.066 647.534 137.932 647 141C644.522 144.235 641.924 146.767 638 148C632.587 148.429 629.432 148.418 625 145C621.732 142.199 621.088 139.95 620.688 135.625C621.054 131.378 622.028 129.972 625 127C629.463 124.024 633.766 124.379 639 125Z" fill="black"/>
  <path d="M492.002 55.9996C493.035 57.3069 494.042 58.6371 495.002 59.9996C467.641 73.9996 467.641 73.9996 463.002 73.9996C462.392 67.1692 463.685 63.3335 468.002 57.9996C474.631 51.5358 484.288 50.9769 492.002 55.9996Z" fill="white"/>
  <path d="M718.939 54.3747C722.002 55.9997 722.002 55.9997 724.002 57.9997C724.002 58.9897 724.002 59.9797 724.002 60.9997C723.337 61.287 722.671 61.5742 721.986 61.8701C718.949 63.1824 715.913 64.4973 712.877 65.8122C711.83 66.2641 710.783 66.7159 709.705 67.1814C703.48 69.8632 703.48 69.8632 697.385 72.824C695.002 73.9997 695.002 73.9997 693.002 73.9997C692.393 67.1814 693.674 63.3177 698.002 57.9997C704.007 52.4235 711.309 51.2075 718.939 54.3747Z" fill="white"/>
  <path d="M670 162C670.66 162.33 671.32 162.66 672 163C670.928 164.322 669.842 165.632 668.75 166.938C668.147 167.668 667.543 168.399 666.922 169.152C664.893 171.103 663.746 171.617 661 172C661.936 170.894 662.874 169.791 663.812 168.688C664.335 168.073 664.857 167.458 665.395 166.824C666.872 165.146 668.4 163.561 670 162Z" fill="black"/>
  </g>
  <defs>
  <clipPath id="clip0_686_3446">
  <rect width="748" height="240" fill="white"/>
  </clipPath>
  </defs>
  </svg>
