<svg width="879" height="100" viewBox="0 0 879 100" fill="none" xmlns="http://www.w3.org/2000/svg">
<path d="M18.499 100H0V0H18.499V63.0595L45.8775 28.5905H67L43.1195 58.3834L67 100H45.8775L31.2801 74.0147L18.499 90.8484V100Z" fill="black"/>
<path d="M79 100V26.0989H99.521V46.978L96.6287 40.9341C98.8323 35.7143 102.367 31.7766 107.234 29.1209C112.1 26.3736 118.022 25 125 25V44.7802C124.082 44.6886 123.255 44.6429 122.521 44.6429C121.786 44.5513 121.006 44.5055 120.18 44.5055C114.303 44.5055 109.529 46.1996 105.856 49.5879C102.275 52.8846 100.485 58.0586 100.485 65.1099V100H79Z" fill="black"/>
<path d="M169.524 81.0671C170.242 81.2909 170.96 81.4476 171.678 81.5371C172.397 81.5819 173.115 81.6042 173.833 81.6042C175.629 81.6042 177.357 81.3581 179.018 80.8657C180.679 80.3734 182.228 79.6796 183.664 78.7845C185.146 77.8445 186.448 76.7256 187.57 75.4276C188.737 74.0848 189.68 72.6078 190.398 70.9965L203.865 84.4912C202.159 86.9081 200.184 89.0789 197.94 91.0035C195.74 92.9281 193.338 94.5618 190.735 95.9046C188.176 97.2473 185.46 98.2544 182.587 98.9258C179.759 99.6419 176.841 100 173.833 100C168.76 100 163.98 99.0601 159.49 97.1802C155.046 95.3004 151.141 92.682 147.774 89.3251C144.452 85.9682 141.826 81.9847 139.895 77.3746C137.965 72.7197 137 67.6172 137 62.0671C137 56.3828 137.965 51.1908 139.895 46.4912C141.826 41.7915 144.452 37.7856 147.774 34.4735C151.141 31.1614 155.046 28.5878 159.49 26.7527C163.98 24.9175 168.76 24 173.833 24C176.841 24 179.781 24.3581 182.654 25.0742C185.527 25.7903 188.243 26.8198 190.802 28.1625C193.406 29.5053 195.83 31.1614 198.074 33.1307C200.319 35.0554 202.294 37.2261 204 39.6431L169.524 81.0671ZM178.951 43.2686C178.098 42.9552 177.245 42.7538 176.392 42.6643C175.584 42.5748 174.731 42.53 173.833 42.53C171.319 42.53 168.94 43 166.695 43.9399C164.496 44.8351 162.565 46.1331 160.905 47.8339C159.288 49.5347 158.009 51.5936 157.066 54.0106C156.124 56.3828 155.652 59.0683 155.652 62.0671C155.652 62.7385 155.675 63.4994 155.72 64.3498C155.809 65.2002 155.922 66.073 156.056 66.9682C156.236 67.8186 156.438 68.6466 156.662 69.4523C156.887 70.2579 157.179 70.9741 157.538 71.6007L178.951 43.2686Z" fill="black"/>
<path d="M272.934 29.9127H290V98.2239H272.934L272.164 89.7533C270.253 92.8046 267.711 95.2865 264.541 97.1992C261.416 99.0664 257.71 100 253.42 100C248.244 100 243.394 99.0436 238.871 97.1309C234.348 95.2182 230.362 92.5769 226.911 89.2068C223.507 85.8368 220.826 81.9431 218.868 77.5256C216.956 73.1082 216 68.3719 216 63.3169C216 58.444 216.909 53.8672 218.728 49.5863C220.593 45.3055 223.181 41.5484 226.491 38.315C229.802 35.0816 233.626 32.5541 237.962 30.7324C242.299 28.9108 246.962 28 251.951 28C256.567 28 260.694 29.0019 264.331 31.0057C268.014 33.0095 271.139 35.5598 273.703 38.6565L272.934 29.9127ZM253 83.9469C256.637 83.9469 259.854 83.0588 262.652 81.2827C265.45 79.5066 267.641 77.1157 269.227 74.1101C270.812 71.0588 271.605 67.7116 271.605 64.0683C271.605 60.3795 270.812 57.0323 269.227 54.0266C267.641 50.9753 265.427 48.5617 262.582 46.7856C259.784 45.0095 256.59 44.1214 253 44.1214C249.41 44.1214 246.122 45.0323 243.138 46.8539C240.2 48.63 237.846 51.0209 236.074 54.0266C234.348 57.0323 233.486 60.3795 233.486 64.0683C233.486 67.7571 234.372 71.1044 236.144 74.1101C237.916 77.1157 240.27 79.5066 243.208 81.2827C246.192 83.0588 249.456 83.9469 253 83.9469Z" fill="black"/>
<path d="M343.099 100C338.667 100 334.503 99.1761 330.608 97.5284C326.713 95.8361 323.288 93.5426 320.333 90.648C317.423 87.7087 315.118 84.3019 313.416 80.4275C311.76 76.5531 310.932 72.4115 310.932 68.0027V46.7602H302V28.5905H310.932V0H329.198V28.5905H357V46.7602H329.198V68.0027C329.198 69.9176 329.556 71.7212 330.272 73.4135C330.989 75.0612 331.974 76.5086 333.227 77.7555C334.481 79.0024 335.958 80.0045 337.659 80.7615C339.361 81.4741 341.174 81.8303 343.099 81.8303H357V100H343.099Z" fill="black"/>
<path d="M401.038 81.0671C401.746 81.2909 402.453 81.4476 403.161 81.5371C403.868 81.5819 404.576 81.6042 405.283 81.6042C407.052 81.6042 408.755 81.3581 410.391 80.8657C412.027 80.3734 413.553 79.6796 414.968 78.7845C416.427 77.8445 417.71 76.7256 418.815 75.4276C419.965 74.0848 420.893 72.6078 421.601 70.9965L434.867 84.4912C433.187 86.9081 431.241 89.0789 429.03 91.0035C426.863 92.9281 424.497 94.5618 421.933 95.9046C419.412 97.2473 416.737 98.2544 413.907 98.9258C411.121 99.6419 408.246 100 405.283 100C400.286 100 395.577 99.0601 391.155 97.1802C386.777 95.3004 382.93 92.682 379.613 89.3251C376.341 85.9682 373.754 81.9847 371.852 77.3746C369.951 72.7197 369 67.6172 369 62.0671C369 56.3828 369.951 51.1908 371.852 46.4912C373.754 41.7915 376.341 37.7856 379.613 34.4735C382.93 31.1614 386.777 28.5878 391.155 26.7527C395.577 24.9175 400.286 24 405.283 24C408.246 24 411.143 24.3581 413.973 25.0742C416.803 25.7903 419.478 26.8198 421.999 28.1625C424.564 29.5053 426.952 31.1614 429.163 33.1307C431.374 35.0554 433.32 37.2261 435 39.6431L401.038 81.0671ZM410.325 43.2686C409.484 42.9552 408.644 42.7538 407.804 42.6643C407.008 42.5748 406.168 42.53 405.283 42.53C402.807 42.53 400.463 43 398.252 43.9399C396.085 44.8351 394.184 46.1331 392.548 47.8339C390.956 49.5347 389.695 51.5936 388.767 54.0106C387.838 56.3828 387.374 59.0683 387.374 62.0671C387.374 62.7385 387.396 63.4994 387.44 64.3498C387.529 65.2002 387.639 66.073 387.772 66.9682C387.949 67.8186 388.148 68.6466 388.369 69.4523C388.59 70.2579 388.877 70.9741 389.231 71.6007L410.325 43.2686Z" fill="black"/>
<path d="M878.164 63.6052C878.164 68.6987 877.251 73.4527 875.426 77.867C873.601 82.239 871.118 86.0379 867.977 89.2638C864.836 92.4472 861.143 94.9728 856.898 96.8404C852.696 98.6656 848.176 99.5782 843.337 99.5782C838.54 99.5782 834.02 98.6656 829.775 96.8404C825.573 94.9728 821.88 92.4472 818.697 89.2638C815.556 86.0379 813.073 82.239 811.248 77.867C809.422 73.4527 808.51 68.6987 808.51 63.6052C808.51 58.4268 809.422 53.6304 811.248 49.216C813.073 44.8016 815.556 41.0027 818.697 37.8193C821.88 34.5934 825.573 32.0678 829.775 30.2426C834.02 28.4175 838.54 27.5049 843.337 27.5049C848.176 27.5049 852.696 28.375 856.898 30.1153C861.143 31.8131 864.836 34.2538 867.977 37.4372C871.118 40.5782 873.601 44.3772 875.426 48.834C877.251 53.2484 878.164 58.1721 878.164 63.6052ZM860.655 63.6052C860.655 60.8038 860.188 58.2782 859.254 56.0286C858.363 53.7365 857.132 51.784 855.561 50.171C853.991 48.5156 852.144 47.2635 850.022 46.4146C847.942 45.5232 845.714 45.0775 843.337 45.0775C840.96 45.0775 838.71 45.5232 836.588 46.4146C834.508 47.2635 832.683 48.5156 831.112 50.171C829.584 51.784 828.374 53.7365 827.483 56.0286C826.592 58.2782 826.146 60.8038 826.146 63.6052C826.146 66.2368 826.592 68.6775 827.483 70.9271C828.374 73.1768 829.584 75.1293 831.112 76.7847C832.683 78.4401 834.508 79.7559 836.588 80.7321C838.71 81.666 840.96 82.1329 843.337 82.1329C845.714 82.1329 847.942 81.6872 850.022 80.7958C852.144 79.9044 853.991 78.6523 855.561 77.0393C857.132 75.4264 858.363 73.4739 859.254 71.1818C860.188 68.8897 860.655 66.3642 860.655 63.6052Z" fill="black"/>
<path d="M795.433 11.5878C795.433 13.2007 795.115 14.7075 794.478 16.1083C793.884 17.509 793.056 18.7399 791.995 19.8011C790.934 20.8198 789.681 21.6475 788.238 22.2841C786.838 22.8784 785.331 23.1755 783.718 23.1755C782.105 23.1755 780.577 22.8784 779.134 22.2841C777.733 21.6475 776.502 20.8198 775.441 19.8011C774.422 18.7399 773.594 17.509 772.958 16.1083C772.364 14.7075 772.066 13.2007 772.066 11.5878C772.066 10.0173 772.364 8.53164 772.958 7.13093C773.594 5.68776 774.422 4.45683 775.441 3.43812C776.502 2.37698 777.733 1.54928 779.134 0.955035C780.577 0.318345 782.105 0 783.718 0C785.331 0 786.838 0.318345 788.238 0.955035C789.681 1.54928 790.934 2.37698 791.995 3.43812C793.056 4.45683 793.884 5.68776 794.478 7.13093C795.115 8.53164 795.433 10.0173 795.433 11.5878ZM792.44 98.3049H774.932V30.1154H792.44V98.3049Z" fill="black"/>
<path d="M738.041 0.509277H753.949V98.3048H738.041V90.1552C735.954 93.0673 733.325 95.4362 730.152 97.2617C726.979 99.0872 723.306 100 719.133 100C714.396 100 709.962 99.1089 705.833 97.3269C701.704 95.5448 698.053 93.0891 694.88 89.9596C691.751 86.7867 689.295 83.1357 687.513 79.0065C685.731 74.8774 684.84 70.444 684.84 65.7063C684.84 60.9687 685.731 56.5353 687.513 52.4061C689.295 48.277 691.751 44.6477 694.88 41.5182C698.053 38.3453 701.704 35.8678 705.833 34.0858C709.962 32.3037 714.396 31.4127 719.133 31.4127C723.306 31.4127 726.979 32.3254 730.152 34.151C733.325 35.933 735.954 38.3018 738.041 41.2574V0.509277ZM719.329 84.6787C722.719 84.6787 725.718 83.8311 728.326 82.136C730.934 80.4408 732.977 78.1589 734.455 75.2903C735.933 72.3781 736.671 69.1835 736.671 65.7063C736.671 62.1857 735.933 58.991 734.455 56.1223C732.977 53.2102 730.912 50.9066 728.261 49.2115C725.653 47.5163 722.676 46.6688 719.329 46.6688C715.982 46.6688 712.918 47.5381 710.136 49.2767C707.398 50.9718 705.203 53.2537 703.551 56.1223C701.943 58.991 701.139 62.1857 701.139 65.7063C701.139 69.227 701.965 72.4216 703.617 75.2903C705.268 78.1589 707.463 80.4408 710.201 82.136C712.983 83.8311 716.026 84.6787 719.329 84.6787Z" fill="black"/>
<path d="M610.482 74.182V33.1079H626.391V70.0094C626.391 72.5738 627.021 74.9209 628.281 77.0507C629.542 79.137 631.215 80.8104 633.301 82.0709C635.431 83.2879 637.757 83.8964 640.277 83.8964C642.885 83.8964 645.232 83.2879 647.319 82.0709C649.405 80.8104 651.078 79.137 652.339 77.0507C653.599 74.9209 654.23 72.5738 654.23 70.0094V33.1079H670.138L670.203 98.3049H654.295L654.23 92.372C651.969 94.7191 649.296 96.5881 646.21 97.979C643.124 99.3264 639.821 100 636.3 100C631.563 100 627.238 98.8483 623.326 96.5446C619.414 94.1975 616.285 91.0898 613.938 87.2214C611.634 83.3096 610.482 78.9632 610.482 74.182Z" fill="black"/>
<path d="M582.381 98.3046C578.179 98.3046 574.232 97.5194 570.539 95.9489C566.846 94.3359 563.599 92.15 560.798 89.391C558.039 86.5896 555.853 83.3424 554.24 79.6496C552.669 75.9568 551.884 72.0094 551.884 67.8072V47.5605H543.416V30.2425H551.884V2.99219H569.202V30.2425H595.561V47.5605H569.202V67.8072C569.202 69.6324 569.542 71.3514 570.221 72.9644C570.9 74.5349 571.834 75.9144 573.022 77.1029C574.211 78.2914 575.611 79.2464 577.224 79.968C578.837 80.6471 580.556 80.9867 582.381 80.9867H595.561V98.3046H582.381Z" fill="black"/>
<path d="M510.729 98.3048H471V80.9868H510.729C511.918 80.9868 512.937 80.5624 513.786 79.7135C514.634 78.8645 515.059 77.8458 515.059 76.6574C515.059 75.4264 514.634 74.62 513.786 74.2379C512.937 73.8559 511.918 73.6649 510.729 73.6649H492.647C489.634 73.6649 486.811 73.0919 484.179 71.9459C481.548 70.7998 479.256 69.2505 477.303 67.298C475.351 65.3031 473.801 62.9898 472.655 60.3581C471.552 57.7264 471 54.9038 471 51.8901C471 48.8765 471.552 46.0538 472.655 43.4222C473.801 40.7905 475.351 38.4984 477.303 36.5459C479.256 34.5934 481.548 33.0653 484.179 31.9617C486.811 30.8157 489.634 30.2427 492.647 30.2427H527.856V47.5606H492.647C491.459 47.5606 490.44 47.9851 489.591 48.834C488.742 49.6829 488.318 50.7016 488.318 51.8901C488.318 53.1211 488.742 54.1822 489.591 55.0736C490.44 55.9225 491.459 56.347 492.647 56.347H510.729C513.701 56.347 516.502 56.8563 519.134 57.875C521.765 58.8513 524.057 60.2308 526.01 62.0135C527.963 63.7962 529.512 65.9397 530.658 68.4441C531.804 70.9484 532.377 73.6861 532.377 76.6574C532.377 79.671 531.804 82.4937 530.658 85.1253C529.512 87.7145 527.963 90.0066 526.01 92.0016C524.057 93.9541 521.765 95.5034 519.134 96.6494C516.502 97.753 513.701 98.3048 510.729 98.3048Z" fill="black"/>
</svg>
